<?xml version="1.0" standalone="no"?>
<!DOCTYPE svg PUBLIC "-//W3C//DTD SVG 20010904//EN"
 "http://www.w3.org/TR/2001/REC-SVG-20010904/DTD/svg10.dtd">
<svg version="1.0" xmlns="http://www.w3.org/2000/svg"
 width="2481.000000pt" height="2137.000000pt" viewBox="0 0 2481.000000 2137.000000"
 preserveAspectRatio="xMidYMid meet">

<g transform="translate(0.000000,2137.000000) scale(0.100000,-0.100000)"
fill="#000000" stroke="none">
<path d="M11600 20625 l0 -355 380 0 380 0 0 -370 0 -370 -377 -2 -378 -3 -3
-367 -2 -368 -390 0 -390 0 0 -355 0 -355 -395 0 -395 0 0 355 0 355 -355 0
-355 0 0 -720 0 -720 3080 0 3080 0 0 725 0 725 -390 0 -390 0 0 370 0 370
-385 0 -385 0 0 365 0 365 -392 2 -393 3 -3 353 -2 352 -770 0 -770 0 0 -355z"/>
<path d="M10820 19900 l0 -360 385 0 385 0 0 360 0 360 -385 0 -385 0 0 -360z"/>
<path d="M10040 19165 l0 -365 385 0 385 0 0 365 0 365 -385 0 -385 0 0 -365z"/>
<path d="M9312 13663 l3 -2918 3080 0 3080 0 3 2918 2 2917 -3085 0 -3085 0 2
-2917z m3848 1092 l0 -355 380 0 380 0 0 -735 0 -735 -380 0 -380 0 0 -360 0
-360 -780 0 -780 0 0 360 0 360 -380 0 -380 0 0 730 0 730 375 0 375 0 0 360
0 360 785 0 785 0 0 -355z"/>
<path d="M7740 13285 l0 -365 -390 0 -390 0 0 -730 0 -730 -380 0 -380 0 2
-1827 3 -1828 383 -3 382 -2 0 735 0 735 390 0 390 0 0 360 0 360 380 0 380 0
0 1830 0 1830 -385 0 -385 0 0 -365z"/>
<path d="M16240 11815 l0 -1825 390 0 390 0 0 -365 0 -365 385 0 385 0 0 -725
0 -725 380 0 380 0 0 1830 0 1830 -385 0 -385 0 -2 733 -3 732 -387 3 -388 2
0 350 0 350 -380 0 -380 0 0 -1825z"/>
<path d="M10060 9615 l0 -365 375 0 375 0 0 -1465 0 -1465 -755 0 -755 0 0
-365 0 -365 -390 0 -390 0 0 -735 0 -735 -385 0 -385 0 0 -365 0 -365 -780 0
-780 0 0 -735 0 -735 -390 0 -390 0 0 -370 0 -370 -775 0 -775 0 0 -350 0
-350 9270 0 9270 0 0 355 0 355 -1520 0 -1520 0 0 370 0 370 375 0 375 0 0
1095 0 1095 -380 0 -380 0 0 -725 0 -725 -395 0 -395 0 0 725 0 725 -770 0
-770 0 0 370 0 370 770 0 770 0 0 355 0 355 -1165 0 -1165 0 0 -350 0 -350
-370 0 -370 0 0 730 0 730 -387 -2 -388 -3 -3 -357 -2 -358 -380 0 -380 0 0
360 0 360 385 0 385 0 0 370 0 370 -385 0 -385 0 0 1100 0 1100 370 0 370 0 0
355 0 355 -2315 0 -2315 0 0 -365z m2308 -3652 l-3 -1088 -375 0 -375 0 -3
1088 -2 1087 380 0 380 0 -2 -1087z m-1568 -738 l0 -365 -375 0 -375 0 0 -360
0 -360 -375 0 -375 0 0 725 0 725 750 0 750 0 0 -365z m3120 -735 l0 -360
-375 0 -375 0 0 360 0 360 375 0 375 0 0 -360z m-1560 -1465 l0 -355 -377 2
-378 3 -3 353 -2 352 380 0 380 0 0 -355z m3120 -1095 l0 -730 -380 0 -380 0
0 355 0 355 -382 2 -383 3 -3 360 c-1 198 0 366 3 372 3 10 164 13 765 13
l760 0 0 -730z m-6180 -375 l0 -355 -382 2 -383 3 -3 340 c-1 187 0 346 3 352
3 10 89 13 385 13 l380 0 0 -355z"/>
<path d="M18570 4490 l0 -360 385 0 385 0 0 360 0 360 -385 0 -385 0 0 -360z"/>
<path d="M6190 4485 l0 -355 775 0 775 0 0 355 0 355 -775 0 -775 0 0 -355z"/>
<path d="M5410 3760 l0 -360 385 0 385 0 0 360 0 360 -385 0 -385 0 0 -360z"/>
<path d="M4650 2660 l0 -730 375 0 375 0 0 730 0 730 -375 0 -375 0 0 -730z"/>
<path d="M2360 820 l0 -350 370 0 370 0 0 350 0 350 -370 0 -370 0 0 -350z"/>
</g>
</svg>
